<svg width="175" height="140" viewBox="0 0 175 140" fill="none" xmlns="http://www.w3.org/2000/svg">
<path d="M87.4607 50.7304L84.2622 53.8949L84.1426 53.9984L81.4074 56.7045L81.3028 56.8228L78.1043 59.9873L77.9847 59.8542L58.2555 40.3348C58.0014 40.0834 57.7473 39.832 57.4782 39.5954L57.3886 39.5658C56.9103 39.1222 56.417 38.7229 55.9089 38.3237L54.9075 37.3329C53.6221 36.0612 52.247 34.9077 50.7972 33.8874C50.7075 33.8135 50.6029 33.7543 50.4983 33.6804C45.1475 29.9835 38.7952 28.002 32.1291 28.002C23.535 28.002 15.449 31.3144 9.36578 37.3329C3.92529 42.7155 0.846333 49.5621 0.128906 56.601C0.233531 55.1666 0.442781 53.747 0.711816 52.3422C2.16162 44.8154 5.82348 37.6286 11.6974 31.8172C19.2603 24.3347 29.3192 20.209 40.0059 20.209C50.7075 20.209 60.7665 24.3347 68.3293 31.8172L85.996 49.296L87.3262 50.6121L87.4607 50.7304Z" fill="url(#paint0_linear_2878_74308)"/>
<path d="M55.9239 38.3083C52.6058 35.6762 48.8094 33.9165 44.8486 32.9996C44.5646 32.9405 44.2956 32.8813 43.9967 32.8222C35.1633 31.0773 25.6425 33.5911 18.812 40.349C16.002 43.1291 13.9245 46.3527 12.5644 49.813C6.04774 60.7558 6.12247 74.4933 12.7886 85.3769C12.8633 85.4952 12.938 85.5987 12.9978 85.717C14.3878 87.9056 16.0319 89.9758 17.96 91.8834L18.1842 92.1052C19.35 93.2587 20.5906 94.3381 21.8909 95.2993C18.2739 93.4509 14.911 91.0405 11.9516 88.0978L11.6975 87.8464C5.89828 82.0941 2.25135 75.0257 0.77166 67.6024C0.487678 66.1828 0.278429 64.7632 0.158857 63.3288C-0.0503922 61.0811 -0.0503922 58.8334 0.143911 56.6005C0.861338 49.5616 3.9403 42.715 9.38079 37.3324C15.464 31.3139 23.55 28.0015 32.1442 28.0015C38.8102 28.0015 45.1625 29.9978 50.5133 33.6799C50.603 33.739 50.7076 33.8129 50.8122 33.8869C52.262 34.9072 53.6371 36.0606 54.9225 37.3324L55.9239 38.3083Z" fill="url(#paint1_linear_2878_74308)"/>
<path d="M174.867 63.4768C174.763 64.9112 174.553 66.3308 174.284 67.7504C172.835 75.2772 169.173 82.4639 163.284 88.2754C155.721 95.7579 145.662 99.8836 134.975 99.8836C124.289 99.8836 114.23 95.7579 106.667 88.2754L89.1048 70.9149L89.0002 70.7966L87.67 69.4805L87.5504 69.3474L90.8685 66.0646L93.6037 63.3585L93.7083 63.2402L96.9069 60.0757L97.0414 60.194L116.771 79.7135C117.025 79.9649 117.279 80.2162 117.548 80.4381C118.041 80.8965 118.549 81.3253 119.072 81.7394L120.089 82.7449C121.374 84.0166 122.749 85.1701 124.199 86.2052C124.304 86.2791 124.393 86.3383 124.498 86.4122C129.849 90.1091 136.201 92.0906 142.852 92.0906C151.446 92.0906 159.532 88.7782 165.615 82.7449C171.071 77.377 174.135 70.5157 174.867 63.4768Z" fill="url(#paint2_linear_2878_74308)"/>
<path d="M162.761 69.3619C166.183 59.6761 163.986 48.4672 156.169 40.7481L155.99 40.5707C150.729 35.3655 143.734 32.4967 136.291 32.4967C129.744 32.4967 123.556 34.7148 118.579 38.7814C117.892 39.3433 117.234 39.9348 116.591 40.5707L97.0264 59.9423L96.9068 60.0606L96.8918 60.0754L96.9068 60.0902L93.7083 63.2547L93.6036 63.373L90.8684 66.0791L87.4158 69.495L68.5983 88.0977C61.0354 95.5801 50.9765 99.6911 40.2749 99.6911C34.117 99.6911 28.1683 98.3158 22.7726 95.728C22.4737 95.5949 22.1897 95.447 21.8908 95.2844C20.5905 94.3232 19.3649 93.2585 18.1841 92.0903L17.9599 91.8685C16.0318 89.9609 14.3877 87.8906 12.9977 85.7021C12.9379 85.5838 12.8632 85.4803 12.7884 85.362C6.12234 74.4932 6.04761 60.7556 12.5642 49.8128C12.4447 50.1234 12.3251 50.4191 12.2205 50.7445C8.81269 60.4303 11.0098 71.6244 18.8118 79.3435L18.9912 79.5209C24.2523 84.7261 31.2472 87.5949 38.6905 87.5949C45.2371 87.5949 51.4249 85.3768 56.417 81.2954C57.1045 80.7335 57.7622 80.142 58.4049 79.5061L77.9846 60.1345L78.1042 60.0162L78.1192 60.0014L78.1042 59.9866L81.3027 56.8221L81.4074 56.7038L84.1426 53.9977L84.2621 53.8942L87.4607 50.7297L87.5952 50.5966L106.398 31.9939C113.961 24.5115 124.02 20.3857 134.706 20.3857C140.879 20.3857 146.828 21.761 152.223 24.3636C152.507 24.4967 152.791 24.6445 153.075 24.7924C154.376 25.7684 155.616 26.8331 156.797 27.9865L157.021 28.2083C158.949 30.1159 160.593 32.1862 161.983 34.3599C162.058 34.4782 162.118 34.5965 162.193 34.7148C168.859 45.5836 168.948 59.336 162.417 70.2787C162.536 69.983 162.656 69.6724 162.761 69.3619Z" fill="url(#paint3_linear_2878_74308)"/>
<path d="M174.867 63.4756C174.15 70.5144 171.071 77.3758 165.615 82.7585C159.532 88.777 151.446 92.1042 142.852 92.1042C136.201 92.1042 129.834 90.1078 124.498 86.4258C124.393 86.3666 124.304 86.2927 124.199 86.2187C122.749 85.1984 121.374 84.045 120.089 82.7585L119.072 81.7529C122.405 84.3999 126.202 86.1744 130.162 87.0764C130.446 87.1356 130.716 87.1947 131.014 87.2539C139.833 88.984 149.354 86.4849 156.184 79.727C158.994 76.947 161.072 73.7233 162.432 70.2778C168.963 59.3351 168.874 45.5827 162.208 34.7139C162.133 34.5956 162.073 34.4773 161.998 34.359C160.608 32.1705 158.964 30.1002 157.036 28.2074L156.812 27.9856C155.631 26.8322 154.391 25.7527 153.09 24.7915C156.707 26.6399 160.07 29.0651 163.045 32.0078L163.299 32.2592C169.098 37.9967 172.745 45.0799 174.239 52.5033C174.523 53.9229 174.733 55.3425 174.852 56.7621C175.047 58.995 175.047 61.2427 174.867 63.4756Z" fill="url(#paint4_linear_2878_74308)"/>
<path d="M31.1835 0L28 5.76688L37.64 17.3302L47.295 5.76688L44.1115 0H31.1835Z" fill="url(#paint5_linear_2878_74308)"/>
<path d="M175 114.709C175 114.842 174.947 114.962 174.841 115.068C174.761 115.148 174.655 115.188 174.522 115.188H160.933C160.8 115.188 160.734 115.254 160.734 115.387V122.839C160.734 122.972 160.8 123.038 160.933 123.038H170.059C170.191 123.038 170.298 123.091 170.377 123.198C170.484 123.277 170.537 123.384 170.537 123.517V126.545C170.537 126.678 170.484 126.798 170.377 126.904C170.298 126.984 170.191 127.023 170.059 127.023H160.933C160.8 127.023 160.734 127.09 160.734 127.223V134.914C160.734 135.047 160.8 135.113 160.933 135.113H174.522C174.655 135.113 174.761 135.166 174.841 135.272C174.947 135.352 175 135.458 175 135.591V138.62C175 138.753 174.947 138.872 174.841 138.979C174.761 139.058 174.655 139.098 174.522 139.098H156.589C156.456 139.098 156.337 139.058 156.23 138.979C156.151 138.872 156.111 138.753 156.111 138.62V111.681C156.111 111.548 156.151 111.442 156.23 111.362C156.337 111.256 156.456 111.203 156.589 111.203H174.522C174.655 111.203 174.761 111.256 174.841 111.362C174.947 111.442 175 111.548 175 111.681V114.709Z" fill="#8BA2E4"/>
<path d="M146.022 111.681C146.022 111.548 146.062 111.442 146.142 111.362C146.248 111.256 146.368 111.203 146.501 111.203H150.167C150.3 111.203 150.406 111.256 150.486 111.362C150.592 111.442 150.645 111.548 150.645 111.681V138.62C150.645 138.753 150.592 138.872 150.486 138.979C150.406 139.058 150.3 139.098 150.167 139.098H146.62C146.354 139.098 146.168 138.992 146.062 138.779L134.585 119.97C134.532 119.89 134.479 119.864 134.426 119.89C134.373 119.89 134.346 119.943 134.346 120.049L134.426 138.62C134.426 138.753 134.373 138.872 134.266 138.979C134.187 139.058 134.08 139.098 133.948 139.098H130.281C130.148 139.098 130.029 139.058 129.923 138.979C129.843 138.872 129.803 138.753 129.803 138.62V111.681C129.803 111.548 129.843 111.442 129.923 111.362C130.029 111.256 130.148 111.203 130.281 111.203H133.828C134.094 111.203 134.28 111.309 134.386 111.521L145.823 130.331C145.876 130.411 145.929 130.451 145.982 130.451C146.036 130.424 146.062 130.358 146.062 130.251L146.022 111.681Z" fill="#8BA2E4"/>
<path d="M114.497 139.497C112.504 139.497 110.737 139.098 109.196 138.301C107.656 137.477 106.46 136.322 105.61 134.834C104.786 133.346 104.375 131.633 104.375 129.693V120.607C104.375 118.695 104.8 117.008 105.65 115.546C106.5 114.059 107.682 112.916 109.196 112.119C110.737 111.296 112.504 110.884 114.497 110.884C116.516 110.884 118.282 111.296 119.797 112.119C121.338 112.916 122.533 114.059 123.383 115.546C124.233 117.008 124.659 118.695 124.659 120.607V129.693C124.659 131.633 124.233 133.346 123.383 134.834C122.533 136.322 121.338 137.477 119.797 138.301C118.282 139.098 116.516 139.497 114.497 139.497ZM114.497 135.512C116.17 135.512 117.512 134.993 118.522 133.957C119.531 132.921 120.036 131.553 120.036 129.853V120.568C120.036 118.841 119.531 117.459 118.522 116.423C117.512 115.387 116.17 114.869 114.497 114.869C112.849 114.869 111.521 115.387 110.512 116.423C109.502 117.459 108.997 118.841 108.997 120.568V129.853C108.997 131.553 109.502 132.921 110.512 133.957C111.521 134.993 112.849 135.512 114.497 135.512Z" fill="#8BA2E4"/>
<path d="M80.3914 139.058C80.2585 139.058 80.139 139.018 80.0327 138.939C79.953 138.832 79.9131 138.713 79.9131 138.58V127.9C79.9131 127.794 79.8999 127.714 79.8733 127.661L71.6641 111.761C71.6109 111.654 71.5844 111.575 71.5844 111.521C71.5844 111.309 71.7305 111.203 72.0227 111.203H75.9679C76.2336 111.203 76.4196 111.322 76.5258 111.561L82.1049 122.68C82.1846 122.786 82.2643 122.786 82.344 122.68L87.963 111.561C88.0958 111.322 88.2818 111.203 88.5209 111.203H92.506C92.6919 111.203 92.8115 111.256 92.8646 111.362C92.9443 111.468 92.9443 111.601 92.8646 111.761L84.6155 127.661C84.5624 127.767 84.5358 127.847 84.5358 127.9V138.58C84.5358 138.713 84.4827 138.832 84.3764 138.939C84.2967 139.018 84.1905 139.058 84.0576 139.058H80.3914Z" fill="#F28F8F"/>
<path d="M52.5646 139.098C52.4318 139.098 52.3122 139.058 52.206 138.979C52.1263 138.872 52.0864 138.753 52.0864 138.62V111.681C52.0864 111.548 52.1263 111.442 52.206 111.362C52.3122 111.256 52.4318 111.203 52.5646 111.203H56.2309C56.3637 111.203 56.47 111.256 56.5497 111.362C56.656 111.442 56.7091 111.548 56.7091 111.681V134.914C56.7091 135.047 56.7755 135.113 56.9084 135.113H70.2583C70.3912 135.113 70.4975 135.166 70.5772 135.272C70.6834 135.352 70.7366 135.458 70.7366 135.591V138.62C70.7366 138.753 70.6834 138.872 70.5772 138.979C70.4975 139.058 70.3912 139.098 70.2583 139.098H52.5646Z" fill="#F28F8F"/>
<path d="M41.6477 111.681C41.6477 111.548 41.6876 111.442 41.7673 111.362C41.8735 111.256 41.9931 111.203 42.1259 111.203H45.7922C45.925 111.203 46.0313 111.256 46.111 111.362C46.2173 111.442 46.2704 111.548 46.2704 111.681V138.62C46.2704 138.753 46.2173 138.872 46.111 138.979C46.0313 139.058 45.925 139.098 45.7922 139.098H42.2455C41.9798 139.098 41.7938 138.992 41.6876 138.779L30.2106 119.97C30.1574 119.89 30.1043 119.864 30.0511 119.89C29.998 119.89 29.9714 119.943 29.9714 120.049L30.0511 138.62C30.0511 138.753 29.998 138.872 29.8917 138.979C29.812 139.058 29.7058 139.098 29.5729 139.098H25.9067C25.7738 139.098 25.6543 139.058 25.548 138.979C25.4683 138.872 25.4285 138.753 25.4285 138.62V111.681C25.4285 111.548 25.4683 111.442 25.548 111.362C25.6543 111.256 25.7738 111.203 25.9067 111.203H29.4534C29.7191 111.203 29.905 111.309 30.0113 111.521L41.4484 130.331C41.5016 130.411 41.5547 130.451 41.6079 130.451C41.661 130.424 41.6876 130.358 41.6876 130.251L41.6477 111.681Z" fill="#F28F8F"/>
<path d="M10.1221 139.497C8.12954 139.497 6.36283 139.098 4.82194 138.301C3.28104 137.477 2.08552 136.322 1.23537 134.834C0.411791 133.346 0 131.633 0 129.693V120.607C0 118.695 0.425074 117.008 1.27522 115.546C2.12537 114.059 3.30761 112.916 4.82194 112.119C6.36283 111.296 8.12954 110.884 10.1221 110.884C12.1412 110.884 13.9079 111.296 15.4222 112.119C16.9631 112.916 18.1586 114.059 19.0088 115.546C19.8589 117.008 20.284 118.695 20.284 120.607V129.693C20.284 131.633 19.8589 133.346 19.0088 134.834C18.1586 136.322 16.9631 137.477 15.4222 138.301C13.9079 139.098 12.1412 139.497 10.1221 139.497ZM10.1221 135.512C11.7958 135.512 13.1374 134.993 14.147 133.957C15.1566 132.921 15.6613 131.553 15.6613 129.853V120.568C15.6613 118.841 15.1566 117.459 14.147 116.423C13.1374 115.387 11.7958 114.869 10.1221 114.869C8.47492 114.869 7.14656 115.387 6.13701 116.423C5.12746 117.459 4.62268 118.841 4.62268 120.568V129.853C4.62268 131.553 5.12746 132.921 6.13701 133.957C7.14656 134.993 8.47492 135.512 10.1221 135.512Z" fill="#F28F8F"/>
<defs>
<linearGradient id="paint0_linear_2878_74308" x1="0.132643" y1="40.1092" x2="87.4613" y2="40.1092" gradientUnits="userSpaceOnUse">
<stop stop-color="#F7BCBC"/>
<stop offset="0.3338" stop-color="#F4BCBD"/>
<stop offset="0.5327" stop-color="#ECBBC0"/>
<stop offset="0.6962" stop-color="#DEBAC5"/>
<stop offset="0.8406" stop-color="#CAB8CC"/>
<stop offset="0.971" stop-color="#B0B6D5"/>
<stop offset="1" stop-color="#A9B5D7"/>
</linearGradient>
<linearGradient id="paint1_linear_2878_74308" x1="2.78733" y1="79.0213" x2="49.4237" y2="31.8838" gradientUnits="userSpaceOnUse">
<stop stop-color="#F7BCBC"/>
<stop offset="1" stop-color="#F5A5A5"/>
</linearGradient>
<linearGradient id="paint2_linear_2878_74308" x1="87.535" y1="79.983" x2="174.864" y2="79.983" gradientUnits="userSpaceOnUse">
<stop stop-color="#A9B5D7"/>
<stop offset="1" stop-color="#8C9CC9"/>
</linearGradient>
<linearGradient id="paint3_linear_2878_74308" x1="36.6429" y1="110.36" x2="137.266" y2="8.65563" gradientUnits="userSpaceOnUse">
<stop stop-color="#F5A5A5"/>
<stop offset="1" stop-color="#A9B5D7"/>
</linearGradient>
<linearGradient id="paint4_linear_2878_74308" x1="132.621" y1="80.214" x2="154.541" y2="58.0583" gradientUnits="userSpaceOnUse">
<stop stop-color="#A9B5D7"/>
<stop offset="0.6156" stop-color="#99A7CF"/>
<stop offset="1" stop-color="#8C9CC9"/>
</linearGradient>
<linearGradient id="paint5_linear_2878_74308" x1="27.9948" y1="8.66481" x2="47.2974" y2="8.66481" gradientUnits="userSpaceOnUse">
<stop stop-color="#F7BCBC"/>
<stop offset="1" stop-color="#A9B5D7"/>
</linearGradient>
</defs>
</svg>
