<svg width="200" height="116" viewBox="0 0 200 116" fill="none" xmlns="http://www.w3.org/2000/svg">
<path d="M99.9552 58.5451L96.2997 62.1971L96.163 62.3165L93.0371 65.4395L92.9175 65.5761L89.2621 69.2281L89.1254 69.0745L66.5777 46.548C66.2873 46.2579 65.9969 45.9678 65.6895 45.6947L65.587 45.6606C65.0404 45.1486 64.4767 44.6878 63.8959 44.2271L62.7514 43.0837C61.2824 41.616 59.7109 40.2849 58.054 39.1074C57.9515 39.0221 57.8319 38.9538 57.7124 38.8685C51.5972 34.6021 44.3375 32.3153 36.7191 32.3153C26.8972 32.3153 17.656 36.138 10.7038 43.0837C4.4861 49.2955 0.967292 57.1969 0.147375 65.3201C0.266946 63.6647 0.506089 62.0264 0.813557 60.4052C2.47047 51.7188 6.65546 43.425 13.3685 36.7182C22.0118 28.0831 33.5077 23.3218 45.7211 23.3218C57.9515 23.3218 69.4474 28.0831 78.0907 36.7182L98.2812 56.8897L99.8014 58.4085L99.9552 58.5451Z" fill="url(#paint0_linear_1161_5766)"/>
<path d="M63.913 44.21C60.1209 41.1723 55.7822 39.1415 51.2555 38.0835C50.931 38.0152 50.6235 37.947 50.2819 37.8787C40.1867 35.865 29.3057 38.7661 21.4994 46.565C18.288 49.7734 15.9137 53.4937 14.3593 57.487C6.9117 70.1155 6.99711 85.9694 14.6155 98.5296C14.7009 98.6662 14.7863 98.7856 14.8546 98.9221C16.4432 101.448 18.3222 103.837 20.5257 106.038L20.782 106.294C22.1143 107.626 23.5321 108.871 25.0182 109.981C20.8844 107.847 17.0411 105.066 13.6589 101.67L13.3685 101.38C6.74089 94.7411 2.57298 86.5837 0.881897 78.0168C0.557346 76.3786 0.318204 74.7403 0.181551 73.0849C-0.0575911 70.4909 -0.0575911 67.897 0.16447 65.3201C0.984386 57.1969 4.5032 49.2955 10.7209 43.0837C17.6731 36.138 26.9143 32.3153 36.7362 32.3153C44.3546 32.3153 51.6142 34.6192 57.7295 38.8685C57.8319 38.9368 57.9515 39.0221 58.0711 39.1074C59.728 40.2849 61.2995 41.616 62.7685 43.0837L63.913 44.21Z" fill="url(#paint1_linear_1161_5766)"/>
<path d="M199.848 73.2556C199.729 74.911 199.49 76.5493 199.182 78.1876C197.525 86.8739 193.34 95.1678 186.61 101.875C177.967 110.51 166.471 115.271 154.258 115.271C142.044 115.271 130.548 110.51 121.905 101.875L101.834 81.8396L101.715 81.7031L100.194 80.1842L100.058 80.0307L103.85 76.2421L106.976 73.1191L107.095 72.9826L110.751 69.3306L110.904 69.4671L133.452 91.9936C133.743 92.2837 134.033 92.5738 134.34 92.8298C134.904 93.3588 135.485 93.8537 136.083 94.3316L137.244 95.492C138.713 96.9597 140.285 98.2908 141.942 99.4854C142.061 99.5707 142.164 99.639 142.283 99.7243C148.399 103.991 155.658 106.277 163.26 106.277C173.081 106.277 182.323 102.455 189.275 95.492C195.51 89.2972 199.011 81.3788 199.848 73.2556Z" fill="url(#paint2_linear_1161_5766)"/>
<path d="M186.012 80.0475C189.924 68.8695 187.413 55.9338 178.479 47.0256L178.274 46.8209C172.262 40.8138 164.267 37.5031 155.761 37.5031C148.279 37.5031 141.207 40.0629 135.519 44.7559C134.733 45.4044 133.982 46.087 133.247 46.8209L110.887 69.1767L110.751 69.3132L110.734 69.3303L110.751 69.3474L107.095 72.9994L106.976 73.1359L103.85 76.2589L99.9039 80.201L78.3982 101.67C69.7549 110.305 58.259 115.049 46.0286 115.049C38.9909 115.049 32.1925 113.462 26.026 110.475C25.6844 110.322 25.3598 110.151 25.0182 109.963C23.5321 108.854 22.1314 107.625 20.782 106.277L20.5257 106.021C18.3222 103.82 16.4432 101.431 14.8546 98.9049C14.7863 98.7684 14.7009 98.6489 14.6155 98.5124C6.9971 85.9692 6.9117 70.1153 14.3593 57.4868C14.2226 57.8452 14.086 58.1865 13.9664 58.5619C10.0718 69.7399 12.5828 82.6585 21.4994 91.5667L21.7044 91.7715C27.7171 97.7786 35.7113 101.089 44.2179 101.089C51.6996 101.089 58.7714 98.5294 64.4767 93.8194C65.2624 93.1709 66.014 92.4883 66.7485 91.7544L89.1254 69.3986L89.2621 69.262L89.2792 69.245L89.2621 69.2279L92.9175 65.5759L93.0371 65.4394L96.163 62.3164L96.2997 62.1969L99.9552 58.5449L100.109 58.3913L121.598 36.9228C130.241 28.2877 141.737 23.5264 153.95 23.5264C161.005 23.5264 167.803 25.1135 173.97 28.117C174.294 28.2706 174.619 28.4413 174.943 28.6119C176.429 29.7382 177.847 30.967 179.197 32.2981L179.453 32.5541C181.656 34.7555 183.535 37.1447 185.124 39.6533C185.209 39.7898 185.278 39.9264 185.363 40.0629C192.982 52.6061 193.084 68.477 185.619 81.1055C185.756 80.7642 185.893 80.4058 186.012 80.0475Z" fill="url(#paint3_linear_1161_5766)"/>
<path d="M199.848 73.2555C199.028 81.3787 195.51 89.2971 189.275 95.509C182.323 102.455 173.081 106.294 163.26 106.294C155.658 106.294 148.381 103.991 142.283 99.7412C142.164 99.673 142.061 99.5877 141.942 99.5023C140.285 98.3248 138.713 96.9937 137.244 95.509L136.083 94.3485C139.892 97.4033 144.231 99.4511 148.757 100.492C149.082 100.56 149.389 100.629 149.731 100.697C159.809 102.694 170.69 99.8095 178.496 92.0106C181.708 88.8022 184.082 85.0819 185.636 81.1057C193.101 68.4772 192.999 52.6062 185.38 40.063C185.295 39.9265 185.226 39.79 185.141 39.6535C183.552 37.1278 181.674 34.7386 179.47 32.5542L179.214 32.2982C177.864 30.9671 176.447 29.7213 174.96 28.6121C179.094 30.7453 182.938 33.544 186.337 36.94L186.627 37.2302C193.255 43.8516 197.423 52.026 199.131 60.5929C199.455 62.2312 199.695 63.8695 199.831 65.5078C200.053 68.0847 200.053 70.6786 199.848 73.2555Z" fill="url(#paint4_linear_1161_5766)"/>
<path d="M35.6396 0L32.0014 6.65528L43.0186 20L54.0528 6.65528L50.4146 0H35.6396Z" fill="url(#paint5_linear_1161_5766)"/>
<defs>
<linearGradient id="paint0_linear_1161_5766" x1="0.151646" y1="46.2877" x2="99.9558" y2="46.2877" gradientUnits="userSpaceOnUse">
<stop stop-color="#F7BCBC"/>
<stop offset="0.3338" stop-color="#F4BCBD"/>
<stop offset="0.5327" stop-color="#ECBBC0"/>
<stop offset="0.6962" stop-color="#DEBAC5"/>
<stop offset="0.8406" stop-color="#CAB8CC"/>
<stop offset="0.971" stop-color="#B0B6D5"/>
<stop offset="1" stop-color="#A9B5D7"/>
</linearGradient>
<linearGradient id="paint1_linear_1161_5766" x1="3.18552" y1="91.1949" x2="57.0094" y2="37.3204" gradientUnits="userSpaceOnUse">
<stop stop-color="#F7BCBC"/>
<stop offset="1" stop-color="#F5A5A5"/>
</linearGradient>
<linearGradient id="paint2_linear_1161_5766" x1="100.04" y1="92.3047" x2="199.844" y2="92.3047" gradientUnits="userSpaceOnUse">
<stop stop-color="#A9B5D7"/>
<stop offset="1" stop-color="#8C9CC9"/>
</linearGradient>
<linearGradient id="paint3_linear_1161_5766" x1="41.8777" y1="127.362" x2="158.009" y2="11.1213" gradientUnits="userSpaceOnUse">
<stop stop-color="#F5A5A5"/>
<stop offset="1" stop-color="#A9B5D7"/>
</linearGradient>
<linearGradient id="paint4_linear_1161_5766" x1="151.567" y1="92.5725" x2="176.866" y2="67.2503" gradientUnits="userSpaceOnUse">
<stop stop-color="#A9B5D7"/>
<stop offset="0.6156" stop-color="#99A7CF"/>
<stop offset="1" stop-color="#8C9CC9"/>
</linearGradient>
<linearGradient id="paint5_linear_1161_5766" x1="31.9954" y1="9.99965" x2="54.0556" y2="9.99965" gradientUnits="userSpaceOnUse">
<stop stop-color="#F7BCBC"/>
<stop offset="1" stop-color="#A9B5D7"/>
</linearGradient>
</defs>
</svg>
